<mxfile host="65bd71144e">
    <diagram id="k9-9XXwYsr9B4N6HlESP" name="Page-1">
        <mxGraphModel dx="-2931" dy="738" grid="1" gridSize="10" guides="1" tooltips="1" connect="1" arrows="1" fold="1" page="1" pageScale="1" pageWidth="2000" pageHeight="2000" background="#ffffff" math="0" shadow="0">
            <root>
                <mxCell id="0"/>
                <mxCell id="1" parent="0"/>
                <mxCell id="16" value="فرهنگ&lt;br style=&quot;font-size: 14px;&quot;&gt;آموزش&lt;br style=&quot;font-size: 14px;&quot;&gt;فضای مجازی&lt;br style=&quot;font-size: 14px;&quot;&gt;..." style="whiteSpace=wrap;html=1;rounded=1;sketch=1;curveFitting=1;jiggle=2;strokeColor=#36393d;labelBackgroundColor=none;fillColor=#eeeeee;fontColor=#000000;fontStyle=0;fontSize=14;" parent="1" vertex="1">
                    <mxGeometry x="5450" y="415" width="110" height="110" as="geometry"/>
                </mxCell>
                <mxCell id="42" style="edgeStyle=orthogonalEdgeStyle;html=1;exitX=1;exitY=1;exitDx=0;exitDy=0;entryX=1;entryY=0.5;entryDx=0;entryDy=0;sketch=1;curveFitting=1;jiggle=2;rounded=1;strokeColor=#4f4f4f;" parent="1" source="35" target="39" edge="1">
                    <mxGeometry relative="1" as="geometry"/>
                </mxCell>
                <mxCell id="43" style="edgeStyle=orthogonalEdgeStyle;html=1;exitX=1;exitY=1;exitDx=0;exitDy=0;entryX=1;entryY=0.5;entryDx=0;entryDy=0;sketch=1;curveFitting=1;jiggle=2;rounded=1;strokeColor=#4f4f4f;" parent="1" source="35" target="36" edge="1">
                    <mxGeometry relative="1" as="geometry"/>
                </mxCell>
                <mxCell id="45" style="edgeStyle=orthogonalEdgeStyle;html=1;exitX=1;exitY=1;exitDx=0;exitDy=0;entryX=1;entryY=0.5;entryDx=0;entryDy=0;sketch=1;curveFitting=1;jiggle=2;rounded=1;strokeColor=#4f4f4f;" parent="1" source="35" target="37" edge="1">
                    <mxGeometry relative="1" as="geometry"/>
                </mxCell>
                <mxCell id="169" style="edgeStyle=orthogonalEdgeStyle;html=1;exitX=1;exitY=1;exitDx=0;exitDy=0;entryX=1;entryY=0.5;entryDx=0;entryDy=0;sketch=1;curveFitting=1;jiggle=2;rounded=1;strokeColor=#4f4f4f;" parent="1" source="35" target="168" edge="1">
                    <mxGeometry relative="1" as="geometry"/>
                </mxCell>
                <mxCell id="170" style="edgeStyle=orthogonalEdgeStyle;html=1;exitX=1;exitY=1;exitDx=0;exitDy=0;entryX=1;entryY=0.5;entryDx=0;entryDy=0;sketch=1;curveFitting=1;jiggle=2;rounded=1;strokeColor=#4f4f4f;" parent="1" source="35" target="167" edge="1">
                    <mxGeometry relative="1" as="geometry"/>
                </mxCell>
                <mxCell id="35" value="User" style="html=1;rounded=1;fillColor=#694398;sketch=1;curveFitting=1;jiggle=2;fillStyle=hachure;strokeColor=#4f4f4f;fontSize=16;fontStyle=1;fontColor=#000000;" parent="1" vertex="1">
                    <mxGeometry x="5020" y="1540" width="140" height="30" as="geometry"/>
                </mxCell>
                <mxCell id="36" value="Request Idea" style="whiteSpace=wrap;html=1;rounded=1;sketch=1;curveFitting=1;jiggle=2;strokeColor=#4f4f4f;fillColor=#DFD1F0;fontSize=14;fontColor=#000000;" parent="1" vertex="1">
                    <mxGeometry x="5020" y="1710" width="110" height="30" as="geometry"/>
                </mxCell>
                <mxCell id="37" value="Request Experience" style="whiteSpace=wrap;html=1;rounded=1;sketch=1;curveFitting=1;jiggle=2;strokeColor=#4f4f4f;fillColor=#DFD1F0;fontSize=14;fontColor=#000000;" parent="1" vertex="1">
                    <mxGeometry x="5020" y="1750" width="110" height="40" as="geometry"/>
                </mxCell>
                <mxCell id="39" value="Like &amp;amp; Comment" style="whiteSpace=wrap;html=1;rounded=1;sketch=1;curveFitting=1;jiggle=2;strokeColor=#4f4f4f;fillColor=#DFD1F0;fontSize=14;fontColor=#000000;" parent="1" vertex="1">
                    <mxGeometry x="5020" y="1660" width="110" height="40" as="geometry"/>
                </mxCell>
                <mxCell id="58" style="edgeStyle=orthogonalEdgeStyle;html=1;exitX=1;exitY=1;exitDx=0;exitDy=0;entryX=1;entryY=0.5;entryDx=0;entryDy=0;sketch=1;curveFitting=1;jiggle=2;rounded=1;strokeColor=#4f4f4f;" parent="1" source="60" target="61" edge="1">
                    <mxGeometry relative="1" as="geometry"/>
                </mxCell>
                <mxCell id="59" style="edgeStyle=orthogonalEdgeStyle;html=1;exitX=1;exitY=1;exitDx=0;exitDy=0;entryX=1;entryY=0.5;entryDx=0;entryDy=0;sketch=1;curveFitting=1;jiggle=2;rounded=1;strokeColor=#4f4f4f;" parent="1" source="60" target="62" edge="1">
                    <mxGeometry relative="1" as="geometry"/>
                </mxCell>
                <mxCell id="76" style="edgeStyle=orthogonalEdgeStyle;html=1;exitX=1;exitY=1;exitDx=0;exitDy=0;entryX=1;entryY=0.5;entryDx=0;entryDy=0;sketch=1;curveFitting=1;jiggle=2;rounded=1;strokeColor=#4f4f4f;" parent="1" source="60" target="75" edge="1">
                    <mxGeometry relative="1" as="geometry"/>
                </mxCell>
                <mxCell id="78" style="edgeStyle=orthogonalEdgeStyle;html=1;exitX=1;exitY=1;exitDx=0;exitDy=0;entryX=1;entryY=0.5;entryDx=0;entryDy=0;sketch=1;curveFitting=1;jiggle=2;rounded=1;strokeColor=#4f4f4f;" parent="1" source="60" target="77" edge="1">
                    <mxGeometry relative="1" as="geometry"/>
                </mxCell>
                <mxCell id="84" style="edgeStyle=orthogonalEdgeStyle;html=1;exitX=1;exitY=1;exitDx=0;exitDy=0;entryX=1;entryY=0.5;entryDx=0;entryDy=0;sketch=1;curveFitting=1;jiggle=2;rounded=1;strokeColor=#4f4f4f;" parent="1" source="60" target="79" edge="1">
                    <mxGeometry relative="1" as="geometry"/>
                </mxCell>
                <mxCell id="85" style="edgeStyle=orthogonalEdgeStyle;html=1;exitX=1;exitY=1;exitDx=0;exitDy=0;entryX=1;entryY=0.5;entryDx=0;entryDy=0;sketch=1;curveFitting=1;jiggle=2;rounded=1;strokeColor=#4f4f4f;" parent="1" source="60" target="80" edge="1">
                    <mxGeometry relative="1" as="geometry"/>
                </mxCell>
                <mxCell id="86" style="edgeStyle=orthogonalEdgeStyle;html=1;exitX=1;exitY=1;exitDx=0;exitDy=0;entryX=1;entryY=0.5;entryDx=0;entryDy=0;sketch=1;curveFitting=1;jiggle=2;rounded=1;strokeColor=#4f4f4f;" parent="1" source="60" target="81" edge="1">
                    <mxGeometry relative="1" as="geometry"/>
                </mxCell>
                <mxCell id="87" style="edgeStyle=orthogonalEdgeStyle;html=1;exitX=1;exitY=1;exitDx=0;exitDy=0;entryX=1;entryY=0.5;entryDx=0;entryDy=0;sketch=1;curveFitting=1;jiggle=2;rounded=1;strokeColor=#4f4f4f;" parent="1" source="60" target="82" edge="1">
                    <mxGeometry relative="1" as="geometry"/>
                </mxCell>
                <mxCell id="88" style="edgeStyle=orthogonalEdgeStyle;html=1;exitX=1;exitY=1;exitDx=0;exitDy=0;entryX=1;entryY=0.5;entryDx=0;entryDy=0;sketch=1;curveFitting=1;jiggle=2;rounded=1;strokeColor=#4f4f4f;" parent="1" source="60" target="83" edge="1">
                    <mxGeometry relative="1" as="geometry"/>
                </mxCell>
                <mxCell id="60" value="HomePage" style="html=1;rounded=1;fillColor=#372e42;sketch=1;curveFitting=1;jiggle=2;strokeColor=#4f4f4f;fontSize=16;fontStyle=1;fontColor=#000000;" parent="1" vertex="1">
                    <mxGeometry x="5650" y="920" width="190" height="30" as="geometry"/>
                </mxCell>
                <mxCell id="67" style="edgeStyle=orthogonalEdgeStyle;html=1;exitX=0;exitY=0.5;exitDx=0;exitDy=0;entryX=1;entryY=0.5;entryDx=0;entryDy=0;sketch=1;curveFitting=1;jiggle=2;rounded=1;strokeColor=#4f4f4f;" parent="1" source="61" target="63" edge="1">
                    <mxGeometry relative="1" as="geometry"/>
                </mxCell>
                <mxCell id="68" style="edgeStyle=orthogonalEdgeStyle;html=1;exitX=0;exitY=0.5;exitDx=0;exitDy=0;entryX=1;entryY=0.5;entryDx=0;entryDy=0;sketch=1;curveFitting=1;jiggle=2;rounded=1;strokeColor=#4f4f4f;" parent="1" source="61" target="64" edge="1">
                    <mxGeometry relative="1" as="geometry"/>
                </mxCell>
                <mxCell id="69" style="edgeStyle=orthogonalEdgeStyle;html=1;exitX=0;exitY=0.5;exitDx=0;exitDy=0;entryX=1;entryY=0.5;entryDx=0;entryDy=0;sketch=1;curveFitting=1;jiggle=2;rounded=1;strokeColor=#4f4f4f;" parent="1" source="61" target="65" edge="1">
                    <mxGeometry relative="1" as="geometry"/>
                </mxCell>
                <mxCell id="70" style="edgeStyle=orthogonalEdgeStyle;html=1;exitX=0;exitY=0.5;exitDx=0;exitDy=0;entryX=1;entryY=0.5;entryDx=0;entryDy=0;sketch=1;curveFitting=1;jiggle=2;rounded=1;strokeColor=#4f4f4f;" parent="1" source="61" target="66" edge="1">
                    <mxGeometry relative="1" as="geometry"/>
                </mxCell>
                <mxCell id="212" style="edgeStyle=orthogonalEdgeStyle;html=1;exitX=0;exitY=0.5;exitDx=0;exitDy=0;entryX=1;entryY=0.5;entryDx=0;entryDy=0;strokeColor=#4f4f4f;" parent="1" source="61" target="211" edge="1">
                    <mxGeometry relative="1" as="geometry"/>
                </mxCell>
                <mxCell id="61" value="Slider" style="whiteSpace=wrap;html=1;rounded=1;sketch=1;curveFitting=1;jiggle=2;strokeColor=#4f4f4f;fontColor=#000000;fontSize=14;fontStyle=0;fillColor=#FFFFFF;" parent="1" vertex="1">
                    <mxGeometry x="5650" y="970" width="110" height="30" as="geometry"/>
                </mxCell>
                <mxCell id="73" style="edgeStyle=orthogonalEdgeStyle;html=1;exitX=0;exitY=0.5;exitDx=0;exitDy=0;entryX=1;entryY=0.5;entryDx=0;entryDy=0;sketch=1;curveFitting=1;jiggle=2;rounded=1;strokeColor=#4f4f4f;" parent="1" source="62" target="71" edge="1">
                    <mxGeometry relative="1" as="geometry"/>
                </mxCell>
                <mxCell id="74" style="edgeStyle=orthogonalEdgeStyle;html=1;exitX=0;exitY=0.5;exitDx=0;exitDy=0;entryX=1;entryY=0.5;entryDx=0;entryDy=0;sketch=1;curveFitting=1;jiggle=2;rounded=1;strokeColor=#4f4f4f;" parent="1" source="62" target="72" edge="1">
                    <mxGeometry relative="1" as="geometry"/>
                </mxCell>
                <mxCell id="62" value="History" style="whiteSpace=wrap;html=1;rounded=1;sketch=1;curveFitting=1;jiggle=2;strokeColor=#4f4f4f;fontColor=#000000;fontSize=14;fontStyle=0;fillColor=#FFFFFF;" parent="1" vertex="1">
                    <mxGeometry x="5650" y="1010" width="110" height="30" as="geometry"/>
                </mxCell>
                <mxCell id="63" value="Picuture" style="whiteSpace=wrap;html=1;rounded=1;sketch=1;curveFitting=1;jiggle=2;strokeColor=#4f4f4f;fillColor=#E8D9FC;fontSize=14;fontColor=#000000;" parent="1" vertex="1">
                    <mxGeometry x="5400" y="800" width="110" height="30" as="geometry"/>
                </mxCell>
                <mxCell id="64" value="Title" style="whiteSpace=wrap;html=1;rounded=1;sketch=1;curveFitting=1;jiggle=2;strokeColor=#4f4f4f;fontColor=#0D0D0D;fillColor=#F1E6FF;" parent="1" vertex="1">
                    <mxGeometry x="5400" y="840" width="110" height="30" as="geometry"/>
                </mxCell>
                <mxCell id="65" value="SubTitle" style="whiteSpace=wrap;html=1;rounded=1;sketch=1;curveFitting=1;jiggle=2;strokeColor=#4f4f4f;fillColor=#E2DBFF;fontSize=14;fontColor=#000000;" parent="1" vertex="1">
                    <mxGeometry x="5400" y="880" width="110" height="30" as="geometry"/>
                </mxCell>
                <mxCell id="66" value="Text" style="whiteSpace=wrap;html=1;rounded=1;sketch=1;curveFitting=1;jiggle=2;strokeColor=#4f4f4f;fontColor=#0D0D0D;fontSize=14;fillColor=#E7D1FF;" parent="1" vertex="1">
                    <mxGeometry x="5400" y="920" width="110" height="30" as="geometry"/>
                </mxCell>
                <mxCell id="71" value="Title" style="whiteSpace=wrap;html=1;rounded=1;sketch=1;curveFitting=1;jiggle=2;strokeColor=#4f4f4f;fontColor=#000000;fontSize=14;fontStyle=0;fillColor=#FFFFFF;" parent="1" vertex="1">
                    <mxGeometry x="5400" y="1010" width="110" height="30" as="geometry"/>
                </mxCell>
                <mxCell id="72" value="DateRange" style="whiteSpace=wrap;html=1;rounded=1;sketch=1;curveFitting=1;jiggle=2;strokeColor=#4f4f4f;fontColor=#000000;fontSize=14;fontStyle=0;fillColor=#FFFFFF;" parent="1" vertex="1">
                    <mxGeometry x="5400" y="1050" width="110" height="30" as="geometry"/>
                </mxCell>
                <mxCell id="75" value="NewPosts" style="whiteSpace=wrap;html=1;rounded=1;sketch=1;curveFitting=1;jiggle=2;strokeColor=#4f4f4f;fontStyle=0;fontColor=#000000;fillColor=#E7DBFF;" parent="1" vertex="1">
                    <mxGeometry x="5650" y="1050" width="110" height="30" as="geometry"/>
                </mxCell>
                <mxCell id="77" value="NewExperiences" style="whiteSpace=wrap;html=1;rounded=1;sketch=1;curveFitting=1;jiggle=2;strokeColor=#4f4f4f;fontStyle=0;fontColor=#000000;fillColor=#E7DBFF;" parent="1" vertex="1">
                    <mxGeometry x="5650" y="1090" width="110" height="30" as="geometry"/>
                </mxCell>
                <mxCell id="79" value="ReqExpPage" style="whiteSpace=wrap;html=1;rounded=1;sketch=1;curveFitting=1;jiggle=2;strokeColor=#4f4f4f;fontStyle=0;fontColor=#000000;fillColor=#E7DBFF;" parent="1" vertex="1">
                    <mxGeometry x="5650" y="1130" width="110" height="30" as="geometry"/>
                </mxCell>
                <mxCell id="80" value="IdeaPage" style="whiteSpace=wrap;html=1;rounded=1;sketch=1;curveFitting=1;jiggle=2;strokeColor=#4f4f4f;fontStyle=0;fontColor=#000000;fillColor=#E7DBFF;" parent="1" vertex="1">
                    <mxGeometry x="5650" y="1170" width="110" height="30" as="geometry"/>
                </mxCell>
                <mxCell id="81" value="TimeLine" style="whiteSpace=wrap;html=1;rounded=1;sketch=1;curveFitting=1;jiggle=2;strokeColor=#4f4f4f;fontStyle=0;fontColor=#000000;fillColor=#E7DBFF;" parent="1" vertex="1">
                    <mxGeometry x="5650" y="1210" width="110" height="30" as="geometry"/>
                </mxCell>
                <mxCell id="140" style="edgeStyle=orthogonalEdgeStyle;html=1;exitX=0;exitY=0.5;exitDx=0;exitDy=0;entryX=1;entryY=0.5;entryDx=0;entryDy=0;sketch=1;curveFitting=1;jiggle=2;rounded=1;strokeColor=#4f4f4f;" parent="1" source="82" target="139" edge="1">
                    <mxGeometry relative="1" as="geometry"/>
                </mxCell>
                <mxCell id="82" value="TopPosts" style="whiteSpace=wrap;html=1;rounded=1;sketch=1;curveFitting=1;jiggle=2;strokeColor=#4f4f4f;fontStyle=0;fontColor=#000000;fillColor=#E7DBFF;" parent="1" vertex="1">
                    <mxGeometry x="5650" y="1250" width="110" height="30" as="geometry"/>
                </mxCell>
                <mxCell id="93" style="edgeStyle=orthogonalEdgeStyle;html=1;exitX=0;exitY=0.5;exitDx=0;exitDy=0;entryX=1;entryY=0.5;entryDx=0;entryDy=0;sketch=1;curveFitting=1;jiggle=2;rounded=1;strokeColor=#4f4f4f;" parent="1" source="83" target="89" edge="1">
                    <mxGeometry relative="1" as="geometry"/>
                </mxCell>
                <mxCell id="94" style="edgeStyle=orthogonalEdgeStyle;html=1;exitX=0;exitY=0.5;exitDx=0;exitDy=0;entryX=1;entryY=0.5;entryDx=0;entryDy=0;sketch=1;curveFitting=1;jiggle=2;rounded=1;strokeColor=#4f4f4f;" parent="1" source="83" target="90" edge="1">
                    <mxGeometry relative="1" as="geometry"/>
                </mxCell>
                <mxCell id="95" style="edgeStyle=orthogonalEdgeStyle;html=1;exitX=0;exitY=0.5;exitDx=0;exitDy=0;entryX=1;entryY=0.5;entryDx=0;entryDy=0;sketch=1;curveFitting=1;jiggle=2;rounded=1;strokeColor=#4f4f4f;" parent="1" source="83" target="91" edge="1">
                    <mxGeometry relative="1" as="geometry"/>
                </mxCell>
                <mxCell id="96" style="edgeStyle=orthogonalEdgeStyle;html=1;exitX=0;exitY=0.5;exitDx=0;exitDy=0;entryX=1;entryY=0.5;entryDx=0;entryDy=0;sketch=1;curveFitting=1;jiggle=2;rounded=1;strokeColor=#4f4f4f;" parent="1" source="83" target="92" edge="1">
                    <mxGeometry relative="1" as="geometry"/>
                </mxCell>
                <mxCell id="83" value="AboutMe" style="whiteSpace=wrap;html=1;rounded=1;sketch=1;curveFitting=1;jiggle=2;strokeColor=#4f4f4f;fillColor=#E8DCFC;fontSize=14;fontStyle=0;fontColor=#000000;" parent="1" vertex="1">
                    <mxGeometry x="5650" y="1290" width="110" height="30" as="geometry"/>
                </mxCell>
                <mxCell id="89" value="Picuture" style="whiteSpace=wrap;html=1;rounded=1;sketch=1;curveFitting=1;jiggle=2;strokeColor=#4f4f4f;fillColor=#E8DCFC;fontSize=14;fontStyle=0;fontColor=#000000;" parent="1" vertex="1">
                    <mxGeometry x="5400" y="1170" width="110" height="30" as="geometry"/>
                </mxCell>
                <mxCell id="90" value="Title" style="whiteSpace=wrap;html=1;rounded=1;sketch=1;curveFitting=1;jiggle=2;strokeColor=#4f4f4f;fillColor=#E8DCFC;fontSize=14;fontStyle=0;fontColor=#000000;" parent="1" vertex="1">
                    <mxGeometry x="5400" y="1210" width="110" height="30" as="geometry"/>
                </mxCell>
                <mxCell id="91" value="Text" style="whiteSpace=wrap;html=1;rounded=1;sketch=1;curveFitting=1;jiggle=2;strokeColor=#4f4f4f;fillColor=#E8DCFC;fontSize=14;fontStyle=0;fontColor=#000000;" parent="1" vertex="1">
                    <mxGeometry x="5400" y="1250" width="110" height="30" as="geometry"/>
                </mxCell>
                <mxCell id="92" value="Others" style="whiteSpace=wrap;html=1;rounded=1;sketch=1;curveFitting=1;jiggle=2;strokeColor=#4f4f4f;fillColor=#E8DCFC;fontSize=14;fontStyle=0;fontColor=#000000;" parent="1" vertex="1">
                    <mxGeometry x="5400" y="1290" width="110" height="30" as="geometry"/>
                </mxCell>
                <mxCell id="97" style="edgeStyle=orthogonalEdgeStyle;html=1;exitX=1;exitY=1;exitDx=0;exitDy=0;entryX=1;entryY=0.5;entryDx=0;entryDy=0;sketch=1;curveFitting=1;jiggle=2;rounded=1;strokeColor=#4f4f4f;" parent="1" source="106" target="107" edge="1">
                    <mxGeometry relative="1" as="geometry"/>
                </mxCell>
                <mxCell id="98" style="edgeStyle=orthogonalEdgeStyle;html=1;exitX=1;exitY=1;exitDx=0;exitDy=0;entryX=1;entryY=0.5;entryDx=0;entryDy=0;sketch=1;curveFitting=1;jiggle=2;rounded=1;strokeColor=#4f4f4f;" parent="1" source="106" target="108" edge="1">
                    <mxGeometry relative="1" as="geometry"/>
                </mxCell>
                <mxCell id="99" style="edgeStyle=orthogonalEdgeStyle;html=1;exitX=1;exitY=1;exitDx=0;exitDy=0;entryX=1;entryY=0.5;entryDx=0;entryDy=0;sketch=1;curveFitting=1;jiggle=2;rounded=1;strokeColor=#4f4f4f;" parent="1" source="106" target="109" edge="1">
                    <mxGeometry relative="1" as="geometry"/>
                </mxCell>
                <mxCell id="100" style="edgeStyle=orthogonalEdgeStyle;html=1;exitX=1;exitY=1;exitDx=0;exitDy=0;entryX=1;entryY=0.5;entryDx=0;entryDy=0;sketch=1;curveFitting=1;jiggle=2;rounded=1;strokeColor=#4f4f4f;" parent="1" source="106" target="110" edge="1">
                    <mxGeometry relative="1" as="geometry"/>
                </mxCell>
                <mxCell id="106" value="ReqExperiencePage" style="html=1;rounded=1;fillColor=#372e42;sketch=1;curveFitting=1;jiggle=2;strokeColor=#4f4f4f;fontSize=16;fontStyle=1;fontColor=#000000;" parent="1" vertex="1">
                    <mxGeometry x="5070" y="920" width="190" height="30" as="geometry"/>
                </mxCell>
                <mxCell id="107" value="CreateRequest" style="whiteSpace=wrap;html=1;rounded=1;sketch=1;curveFitting=1;jiggle=2;strokeColor=#4f4f4f;fillColor=#EBD9FF;fontStyle=0;fontSize=14;fontColor=#000000;" parent="1" vertex="1">
                    <mxGeometry x="5070" y="970" width="110" height="30" as="geometry"/>
                </mxCell>
                <mxCell id="108" value="Description" style="whiteSpace=wrap;html=1;rounded=1;sketch=1;curveFitting=1;jiggle=2;strokeColor=#4f4f4f;fillColor=#EBD9FF;fontStyle=0;fontSize=14;fontColor=#000000;" parent="1" vertex="1">
                    <mxGeometry x="5070" y="1010" width="110" height="30" as="geometry"/>
                </mxCell>
                <mxCell id="136" style="edgeStyle=orthogonalEdgeStyle;html=1;exitX=0;exitY=0.5;exitDx=0;exitDy=0;entryX=0;entryY=0.5;entryDx=0;entryDy=0;sketch=1;curveFitting=1;jiggle=2;rounded=1;strokeColor=#4f4f4f;" parent="1" source="109" target="135" edge="1">
                    <mxGeometry relative="1" as="geometry">
                        <Array as="points">
                            <mxPoint x="5050" y="1065"/>
                            <mxPoint x="5050" y="1195"/>
                        </Array>
                    </mxGeometry>
                </mxCell>
                <mxCell id="109" value="TopReqExps" style="whiteSpace=wrap;html=1;rounded=1;sketch=1;curveFitting=1;jiggle=2;strokeColor=#4f4f4f;fillColor=#EBD9FF;fontStyle=0;fontSize=14;fontColor=#000000;" parent="1" vertex="1">
                    <mxGeometry x="5070" y="1050" width="110" height="30" as="geometry"/>
                </mxCell>
                <mxCell id="110" value="ReqExpForm" style="whiteSpace=wrap;html=1;rounded=1;sketch=1;curveFitting=1;jiggle=2;strokeColor=#4f4f4f;fillColor=#EBD9FF;fontStyle=0;fontSize=14;fontColor=#000000;" parent="1" vertex="1">
                    <mxGeometry x="5070" y="1090" width="110" height="30" as="geometry"/>
                </mxCell>
                <mxCell id="126" style="edgeStyle=orthogonalEdgeStyle;html=1;exitX=1;exitY=1;exitDx=0;exitDy=0;entryX=1;entryY=0.5;entryDx=0;entryDy=0;sketch=1;curveFitting=1;jiggle=2;rounded=1;strokeColor=#4f4f4f;" parent="1" source="130" target="131" edge="1">
                    <mxGeometry relative="1" as="geometry"/>
                </mxCell>
                <mxCell id="127" style="edgeStyle=orthogonalEdgeStyle;html=1;exitX=1;exitY=1;exitDx=0;exitDy=0;entryX=1;entryY=0.5;entryDx=0;entryDy=0;sketch=1;curveFitting=1;jiggle=2;rounded=1;strokeColor=#4f4f4f;" parent="1" source="130" target="132" edge="1">
                    <mxGeometry relative="1" as="geometry"/>
                </mxCell>
                <mxCell id="128" style="edgeStyle=orthogonalEdgeStyle;html=1;exitX=1;exitY=1;exitDx=0;exitDy=0;entryX=1;entryY=0.5;entryDx=0;entryDy=0;sketch=1;curveFitting=1;jiggle=2;rounded=1;strokeColor=#4f4f4f;" parent="1" source="130" target="133" edge="1">
                    <mxGeometry relative="1" as="geometry"/>
                </mxCell>
                <mxCell id="130" value="IdeaPage" style="html=1;rounded=1;fillColor=#372e42;sketch=1;curveFitting=1;jiggle=2;strokeColor=#4f4f4f;fontSize=16;fontStyle=1;fontColor=#000000;" parent="1" vertex="1">
                    <mxGeometry x="4790" y="920" width="190" height="30" as="geometry"/>
                </mxCell>
                <mxCell id="131" value="Description" style="whiteSpace=wrap;html=1;rounded=1;sketch=1;curveFitting=1;jiggle=2;strokeColor=#4f4f4f;fillColor=#EBD9FF;fontStyle=0;fontSize=14;fontColor=#000000;" parent="1" vertex="1">
                    <mxGeometry x="4790" y="970" width="110" height="30" as="geometry"/>
                </mxCell>
                <mxCell id="132" value="CreateIdea" style="whiteSpace=wrap;html=1;rounded=1;sketch=1;curveFitting=1;jiggle=2;strokeColor=#4f4f4f;fillColor=#EBD9FF;fontStyle=0;fontSize=14;fontColor=#000000;" parent="1" vertex="1">
                    <mxGeometry x="4790" y="1010" width="110" height="30" as="geometry"/>
                </mxCell>
                <mxCell id="138" style="edgeStyle=orthogonalEdgeStyle;html=1;exitX=0;exitY=0.5;exitDx=0;exitDy=0;entryX=0;entryY=0.5;entryDx=0;entryDy=0;sketch=1;curveFitting=1;jiggle=2;rounded=1;strokeColor=#4f4f4f;" parent="1" source="133" target="137" edge="1">
                    <mxGeometry relative="1" as="geometry">
                        <Array as="points">
                            <mxPoint x="4770" y="1065"/>
                            <mxPoint x="4770" y="1195"/>
                        </Array>
                    </mxGeometry>
                </mxCell>
                <mxCell id="133" value="TopIdeas" style="whiteSpace=wrap;html=1;rounded=1;sketch=1;curveFitting=1;jiggle=2;strokeColor=#4f4f4f;fillColor=#EBD9FF;fontStyle=0;fontSize=14;fontColor=#000000;" parent="1" vertex="1">
                    <mxGeometry x="4790" y="1050" width="110" height="30" as="geometry"/>
                </mxCell>
                <mxCell id="135" value="All-ReqExpPage" style="html=1;rounded=1;fillColor=#372e42;sketch=1;curveFitting=1;jiggle=2;strokeColor=#4f4f4f;fontSize=16;fontStyle=1;fontColor=#000000;" parent="1" vertex="1">
                    <mxGeometry x="5070" y="1180" width="190" height="30" as="geometry"/>
                </mxCell>
                <mxCell id="137" value="All-IdeaPage" style="html=1;rounded=1;fillColor=#372e42;sketch=1;curveFitting=1;jiggle=2;strokeColor=#4f4f4f;fontSize=16;fontStyle=1;fontColor=#000000;" parent="1" vertex="1">
                    <mxGeometry x="4790" y="1180" width="190" height="30" as="geometry"/>
                </mxCell>
                <mxCell id="139" value="All-PostPage" style="html=1;rounded=1;fillColor=#372e42;sketch=1;curveFitting=1;jiggle=2;strokeColor=#4f4f4f;fontSize=16;fontStyle=1;fontColor=#000000;" parent="1" vertex="1">
                    <mxGeometry x="5400" y="1350" width="190" height="30" as="geometry"/>
                </mxCell>
                <mxCell id="144" value="DirectMessage" style="html=1;rounded=1;fillColor=#372e42;sketch=1;curveFitting=1;jiggle=2;strokeColor=#4f4f4f;fontSize=16;fontStyle=1;fontColor=#000000;" parent="1" vertex="1">
                    <mxGeometry x="4500" y="920" width="190" height="30" as="geometry"/>
                </mxCell>
                <mxCell id="149" value="AdminPanel" style="html=1;rounded=1;fillColor=#694398;sketch=1;curveFitting=1;jiggle=2;fillStyle=hachure;strokeColor=#4f4f4f;fontSize=16;fontStyle=1;fontColor=#000000;" parent="1" vertex="1">
                    <mxGeometry x="5250" y="1540" width="590" height="30" as="geometry"/>
                </mxCell>
                <mxCell id="150" value="HomePage" style="whiteSpace=wrap;html=1;rounded=1;sketch=1;curveFitting=1;jiggle=2;strokeColor=#4f4f4f;fontSize=14;fontColor=#0D0D0D;fillColor=#E9DEFF;" parent="1" vertex="1">
                    <mxGeometry x="5730" y="1580" width="110" height="30" as="geometry"/>
                </mxCell>
                <mxCell id="151" value="Post" style="whiteSpace=wrap;html=1;rounded=1;sketch=1;curveFitting=1;jiggle=2;strokeColor=#4f4f4f;fontSize=14;fontColor=#0D0D0D;fillColor=#E9DEFF;" parent="1" vertex="1">
                    <mxGeometry x="5610" y="1580" width="110" height="30" as="geometry"/>
                </mxCell>
                <mxCell id="152" value="Slider" style="whiteSpace=wrap;html=1;rounded=1;sketch=1;curveFitting=1;jiggle=2;strokeColor=#4f4f4f;fontSize=14;fontColor=#0D0D0D;fillColor=#E9DEFF;" parent="1" vertex="1">
                    <mxGeometry x="5490" y="1580" width="110" height="30" as="geometry"/>
                </mxCell>
                <mxCell id="153" value="History" style="whiteSpace=wrap;html=1;rounded=1;sketch=1;curveFitting=1;jiggle=2;strokeColor=#4f4f4f;fontSize=14;fontColor=#0D0D0D;fillColor=#E9DEFF;" parent="1" vertex="1">
                    <mxGeometry x="5370" y="1580" width="110" height="30" as="geometry"/>
                </mxCell>
                <mxCell id="154" value="Comment" style="whiteSpace=wrap;html=1;rounded=1;sketch=1;curveFitting=1;jiggle=2;strokeColor=#4f4f4f;fontSize=14;fontColor=#0D0D0D;fillColor=#E9DEFF;" parent="1" vertex="1">
                    <mxGeometry x="5250" y="1580" width="110" height="30" as="geometry"/>
                </mxCell>
                <mxCell id="155" value="Answer Req Exp" style="whiteSpace=wrap;html=1;rounded=1;sketch=1;curveFitting=1;jiggle=2;strokeColor=#4f4f4f;fontSize=14;fontColor=#0D0D0D;fillColor=#E9DEFF;" parent="1" vertex="1">
                    <mxGeometry x="5610" y="1620" width="110" height="30" as="geometry"/>
                </mxCell>
                <mxCell id="156" value="Answer Idea" style="whiteSpace=wrap;html=1;rounded=1;sketch=1;curveFitting=1;jiggle=2;strokeColor=#4f4f4f;fontSize=14;fontColor=#0D0D0D;fillColor=#E9DEFF;" parent="1" vertex="1">
                    <mxGeometry x="5490" y="1620" width="110" height="30" as="geometry"/>
                </mxCell>
                <mxCell id="157" value="UserPanel" style="html=1;rounded=1;fillColor=#694398;sketch=1;curveFitting=1;jiggle=2;fillStyle=hachure;strokeColor=#4f4f4f;fontSize=16;fontStyle=1;fontColor=#000000;" parent="1" vertex="1">
                    <mxGeometry x="4730" y="1540" width="230" height="30" as="geometry"/>
                </mxCell>
                <mxCell id="159" value="Social Media" style="whiteSpace=wrap;html=1;rounded=1;sketch=1;curveFitting=1;jiggle=2;strokeColor=#4f4f4f;fontSize=14;fontColor=#0D0D0D;fillColor=#E9DEFF;" parent="1" vertex="1">
                    <mxGeometry x="5370" y="1620" width="110" height="30" as="geometry"/>
                </mxCell>
                <mxCell id="160" value="Answer Message" style="whiteSpace=wrap;html=1;rounded=1;sketch=1;curveFitting=1;jiggle=2;strokeColor=#4f4f4f;fontSize=14;fontColor=#0D0D0D;fillColor=#E9DEFF;" parent="1" vertex="1">
                    <mxGeometry x="5250" y="1620" width="110" height="30" as="geometry"/>
                </mxCell>
                <mxCell id="161" value="PostType" style="whiteSpace=wrap;html=1;rounded=1;sketch=1;curveFitting=1;jiggle=2;strokeColor=#4f4f4f;fontSize=14;fontColor=#0D0D0D;fillColor=#E9DEFF;" parent="1" vertex="1">
                    <mxGeometry x="5730" y="1620" width="110" height="30" as="geometry"/>
                </mxCell>
                <mxCell id="162" value="CommentReply" style="whiteSpace=wrap;html=1;rounded=1;sketch=1;curveFitting=1;jiggle=2;strokeColor=#4f4f4f;fillColor=#DFD1F0;fontSize=14;fontColor=#000000;" parent="1" vertex="1">
                    <mxGeometry x="4850" y="1580" width="110" height="40" as="geometry"/>
                </mxCell>
                <mxCell id="163" value="CommentLike" style="whiteSpace=wrap;html=1;rounded=1;sketch=1;curveFitting=1;jiggle=2;strokeColor=#4f4f4f;fillColor=#DFD1F0;fontSize=14;fontColor=#000000;" parent="1" vertex="1">
                    <mxGeometry x="4730" y="1580" width="110" height="40" as="geometry"/>
                </mxCell>
                <mxCell id="164" value="ReqExp" style="whiteSpace=wrap;html=1;rounded=1;sketch=1;curveFitting=1;jiggle=2;strokeColor=#4f4f4f;fillColor=#DFD1F0;fontSize=14;fontColor=#000000;" parent="1" vertex="1">
                    <mxGeometry x="4850" y="1630" width="110" height="40" as="geometry"/>
                </mxCell>
                <mxCell id="165" value="Idea" style="whiteSpace=wrap;html=1;rounded=1;sketch=1;curveFitting=1;jiggle=2;strokeColor=#4f4f4f;fillColor=#DFD1F0;fontSize=14;fontColor=#000000;" parent="1" vertex="1">
                    <mxGeometry x="4730" y="1630" width="110" height="40" as="geometry"/>
                </mxCell>
                <mxCell id="166" value="AboutMe" style="whiteSpace=wrap;html=1;rounded=1;sketch=1;curveFitting=1;jiggle=2;strokeColor=#4f4f4f;fontSize=14;fontColor=#0D0D0D;fillColor=#E9DEFF;" parent="1" vertex="1">
                    <mxGeometry x="5730" y="1660" width="110" height="30" as="geometry"/>
                </mxCell>
                <mxCell id="167" value="Register" style="whiteSpace=wrap;html=1;rounded=1;sketch=1;curveFitting=1;jiggle=2;strokeColor=#4f4f4f;fillColor=#DFD1F0;fontSize=14;fontColor=#000000;" parent="1" vertex="1">
                    <mxGeometry x="5020" y="1580" width="110" height="30" as="geometry"/>
                </mxCell>
                <mxCell id="168" value="Login" style="whiteSpace=wrap;html=1;rounded=1;sketch=1;curveFitting=1;jiggle=2;strokeColor=#4f4f4f;fillColor=#DFD1F0;fontSize=14;fontColor=#000000;" parent="1" vertex="1">
                    <mxGeometry x="5020" y="1620" width="110" height="30" as="geometry"/>
                </mxCell>
                <mxCell id="171" value="User" style="whiteSpace=wrap;html=1;rounded=1;sketch=1;curveFitting=1;jiggle=2;strokeColor=#4f4f4f;fontSize=14;fontColor=#0D0D0D;fillColor=#E9DEFF;" parent="1" vertex="1">
                    <mxGeometry x="5610" y="1660" width="110" height="30" as="geometry"/>
                </mxCell>
                <mxCell id="211" value="Url" style="whiteSpace=wrap;html=1;rounded=1;sketch=1;curveFitting=1;jiggle=2;strokeColor=#4f4f4f;fontColor=#0D0D0D;fillColor=#F1E6FF;" parent="1" vertex="1">
                    <mxGeometry x="5400" y="960" width="110" height="30" as="geometry"/>
                </mxCell>
                <mxCell id="349" value="" style="edgeStyle=none;sketch=1;hachureGap=4;jiggle=2;curveFitting=1;html=1;fontFamily=Architects Daughter;fontSource=https%3A%2F%2Ffonts.googleapis.com%2Fcss%3Ffamily%3DArchitects%2BDaughter;fontSize=16;" parent="1" edge="1">
                    <mxGeometry relative="1" as="geometry">
                        <mxPoint x="4857" y="970" as="sourcePoint"/>
                        <mxPoint x="4873" y="950" as="targetPoint"/>
                    </mxGeometry>
                </mxCell>
                <mxCell id="401" style="edgeStyle=orthogonalEdgeStyle;html=1;exitX=1;exitY=1;exitDx=0;exitDy=0;entryX=1;entryY=0.5;entryDx=0;entryDy=0;sketch=1;curveFitting=1;jiggle=2;rounded=1;strokeColor=#4f4f4f;startArrow=none;" edge="1" source="405" target="406" parent="1">
                    <mxGeometry relative="1" as="geometry">
                        <mxPoint x="5850" y="160" as="sourcePoint"/>
                    </mxGeometry>
                </mxCell>
                <mxCell id="403" style="edgeStyle=orthogonalEdgeStyle;html=1;exitX=1;exitY=1;exitDx=0;exitDy=0;entryX=1;entryY=0.5;entryDx=0;entryDy=0;sketch=1;curveFitting=1;jiggle=2;rounded=1;strokeColor=#4f4f4f;" edge="1" source="405" target="408" parent="1">
                    <mxGeometry relative="1" as="geometry"/>
                </mxCell>
                <mxCell id="414" style="edgeStyle=orthogonalEdgeStyle;sketch=1;hachureGap=4;jiggle=2;curveFitting=1;html=1;exitX=1;exitY=1;exitDx=0;exitDy=0;entryX=1;entryY=0.5;entryDx=0;entryDy=0;fontFamily=Architects Daughter;fontSource=https%3A%2F%2Ffonts.googleapis.com%2Fcss%3Ffamily%3DArchitects%2BDaughter;fontSize=16;strokeColor=#0D0D0D;" edge="1" parent="1" source="405" target="412">
                    <mxGeometry relative="1" as="geometry"/>
                </mxCell>
                <mxCell id="452" style="edgeStyle=orthogonalEdgeStyle;sketch=1;hachureGap=4;jiggle=2;curveFitting=1;html=1;exitX=1;exitY=1;exitDx=0;exitDy=0;entryX=1;entryY=0.5;entryDx=0;entryDy=0;strokeColor=#0D0D0D;fontFamily=Architects Daughter;fontSource=https%3A%2F%2Ffonts.googleapis.com%2Fcss%3Ffamily%3DArchitects%2BDaughter;fontSize=16;" edge="1" parent="1" source="405" target="451">
                    <mxGeometry relative="1" as="geometry"/>
                </mxCell>
                <mxCell id="453" style="edgeStyle=orthogonalEdgeStyle;sketch=1;hachureGap=4;jiggle=2;curveFitting=1;html=1;exitX=1;exitY=1;exitDx=0;exitDy=0;entryX=1;entryY=0.5;entryDx=0;entryDy=0;strokeColor=#0D0D0D;fontFamily=Architects Daughter;fontSource=https%3A%2F%2Ffonts.googleapis.com%2Fcss%3Ffamily%3DArchitects%2BDaughter;fontSize=16;" edge="1" parent="1" source="405" target="437">
                    <mxGeometry relative="1" as="geometry"/>
                </mxCell>
                <mxCell id="454" style="edgeStyle=orthogonalEdgeStyle;sketch=1;hachureGap=4;jiggle=2;curveFitting=1;html=1;exitX=1;exitY=1;exitDx=0;exitDy=0;entryX=1;entryY=0.5;entryDx=0;entryDy=0;strokeColor=#0D0D0D;fontFamily=Architects Daughter;fontSource=https%3A%2F%2Ffonts.googleapis.com%2Fcss%3Ffamily%3DArchitects%2BDaughter;fontSize=16;" edge="1" parent="1" source="405" target="445">
                    <mxGeometry relative="1" as="geometry"/>
                </mxCell>
                <mxCell id="455" style="edgeStyle=orthogonalEdgeStyle;sketch=1;hachureGap=4;jiggle=2;curveFitting=1;html=1;exitX=1;exitY=1;exitDx=0;exitDy=0;entryX=1;entryY=0.5;entryDx=0;entryDy=0;strokeColor=#0D0D0D;fontFamily=Architects Daughter;fontSource=https%3A%2F%2Ffonts.googleapis.com%2Fcss%3Ffamily%3DArchitects%2BDaughter;fontSize=16;" edge="1" parent="1" source="405" target="446">
                    <mxGeometry relative="1" as="geometry"/>
                </mxCell>
                <mxCell id="457" style="edgeStyle=orthogonalEdgeStyle;sketch=1;hachureGap=4;jiggle=2;curveFitting=1;html=1;exitX=1;exitY=1;exitDx=0;exitDy=0;entryX=1;entryY=0.5;entryDx=0;entryDy=0;strokeColor=#0D0D0D;fontFamily=Architects Daughter;fontSource=https%3A%2F%2Ffonts.googleapis.com%2Fcss%3Ffamily%3DArchitects%2BDaughter;fontSize=16;" edge="1" parent="1" source="405" target="456">
                    <mxGeometry relative="1" as="geometry"/>
                </mxCell>
                <mxCell id="405" value="ContentType" style="whiteSpace=wrap;html=1;rounded=1;fillColor=#6A5980;sketch=1;curveFitting=1;jiggle=2;strokeColor=#4f4f4f;fontStyle=1;fontSize=16;fontColor=#000000;fillStyle=hachure;" vertex="1" parent="1">
                    <mxGeometry x="5650" y="40" width="190" height="30" as="geometry"/>
                </mxCell>
                <mxCell id="406" value="id" style="whiteSpace=wrap;html=1;rounded=1;sketch=1;curveFitting=1;jiggle=2;strokeColor=#36393d;labelBackgroundColor=none;fillColor=#eeeeee;fontColor=#000000;fontStyle=0;fontSize=14;" vertex="1" parent="1">
                    <mxGeometry x="5650" y="170" width="110" height="30" as="geometry"/>
                </mxCell>
                <mxCell id="408" value="title" style="whiteSpace=wrap;html=1;rounded=1;sketch=1;curveFitting=1;jiggle=2;strokeColor=#36393d;labelBackgroundColor=none;fillColor=#eeeeee;fontColor=#000000;fontStyle=0;fontSize=14;" vertex="1" parent="1">
                    <mxGeometry x="5650" y="90" width="110" height="30" as="geometry"/>
                </mxCell>
                <mxCell id="410" value="Post&lt;br&gt;Experience&lt;br&gt;Idea&lt;br&gt;useIdea&lt;br&gt;userExpRequest" style="whiteSpace=wrap;html=1;rounded=1;sketch=1;curveFitting=1;jiggle=2;strokeColor=#36393d;labelBackgroundColor=none;fillColor=#eeeeee;fontColor=#000000;fontStyle=0;fontSize=14;" vertex="1" parent="1">
                    <mxGeometry x="5470" y="30" width="140" height="110" as="geometry"/>
                </mxCell>
                <mxCell id="411" style="edgeStyle=orthogonalEdgeStyle;html=1;exitX=0;exitY=0.5;exitDx=0;exitDy=0;entryX=1;entryY=0.5;entryDx=0;entryDy=0;sketch=1;curveFitting=1;jiggle=2;rounded=1;fillColor=#eeeeee;strokeColor=#36393d;labelBackgroundColor=none;fontColor=#000000;fontStyle=1;fontSize=14;" edge="1" parent="1">
                    <mxGeometry relative="1" as="geometry">
                        <mxPoint x="5650" y="105" as="sourcePoint"/>
                        <mxPoint x="5610" y="105" as="targetPoint"/>
                    </mxGeometry>
                </mxCell>
                <mxCell id="417" style="edgeStyle=orthogonalEdgeStyle;sketch=1;hachureGap=4;jiggle=2;curveFitting=1;html=1;exitX=1;exitY=1;exitDx=0;exitDy=0;entryX=1;entryY=0.5;entryDx=0;entryDy=0;strokeColor=#0D0D0D;fontFamily=Architects Daughter;fontSource=https%3A%2F%2Ffonts.googleapis.com%2Fcss%3Ffamily%3DArchitects%2BDaughter;fontSize=16;" edge="1" parent="1" source="412" target="415">
                    <mxGeometry relative="1" as="geometry"/>
                </mxCell>
                <mxCell id="418" style="edgeStyle=orthogonalEdgeStyle;sketch=1;hachureGap=4;jiggle=2;curveFitting=1;html=1;exitX=1;exitY=1;exitDx=0;exitDy=0;entryX=1;entryY=0.5;entryDx=0;entryDy=0;strokeColor=#0D0D0D;fontFamily=Architects Daughter;fontSource=https%3A%2F%2Ffonts.googleapis.com%2Fcss%3Ffamily%3DArchitects%2BDaughter;fontSize=16;" edge="1" parent="1" source="412" target="416">
                    <mxGeometry relative="1" as="geometry"/>
                </mxCell>
                <mxCell id="412" value="&lt;b&gt;ContentTypeCategory&lt;/b&gt;" style="whiteSpace=wrap;html=1;rounded=1;sketch=1;curveFitting=1;jiggle=2;strokeColor=#36393d;labelBackgroundColor=none;fillColor=#b0b0b0;fontColor=#000000;fontStyle=0;fontSize=14;fillStyle=hachure;" vertex="1" parent="1">
                    <mxGeometry x="5590" y="425" width="170" height="30" as="geometry"/>
                </mxCell>
                <mxCell id="436" style="edgeStyle=orthogonalEdgeStyle;sketch=1;hachureGap=4;jiggle=2;curveFitting=1;html=1;exitX=0;exitY=0.5;exitDx=0;exitDy=0;entryX=0.996;entryY=0.602;entryDx=0;entryDy=0;entryPerimeter=0;strokeColor=#0D0D0D;fontFamily=Architects Daughter;fontSource=https%3A%2F%2Ffonts.googleapis.com%2Fcss%3Ffamily%3DArchitects%2BDaughter;fontSize=16;" edge="1" parent="1" source="415" target="16">
                    <mxGeometry relative="1" as="geometry"/>
                </mxCell>
                <mxCell id="415" value="title" style="whiteSpace=wrap;html=1;rounded=1;sketch=1;curveFitting=1;jiggle=2;strokeColor=#36393d;labelBackgroundColor=none;fillColor=#eeeeee;fontColor=#000000;fontStyle=0;fontSize=14;" vertex="1" parent="1">
                    <mxGeometry x="5590" y="465" width="110" height="30" as="geometry"/>
                </mxCell>
                <mxCell id="416" value="id" style="whiteSpace=wrap;html=1;rounded=1;sketch=1;curveFitting=1;jiggle=2;strokeColor=#36393d;labelBackgroundColor=none;fillColor=#eeeeee;fontColor=#000000;fontStyle=0;fontSize=14;" vertex="1" parent="1">
                    <mxGeometry x="5590" y="505" width="110" height="30" as="geometry"/>
                </mxCell>
                <mxCell id="424" style="edgeStyle=orthogonalEdgeStyle;sketch=1;hachureGap=4;jiggle=2;curveFitting=1;html=1;exitX=1;exitY=1;exitDx=0;exitDy=0;entryX=1;entryY=0.5;entryDx=0;entryDy=0;strokeColor=#0D0D0D;fontFamily=Architects Daughter;fontSource=https%3A%2F%2Ffonts.googleapis.com%2Fcss%3Ffamily%3DArchitects%2BDaughter;fontSize=16;" edge="1" parent="1" source="419" target="423">
                    <mxGeometry relative="1" as="geometry"/>
                </mxCell>
                <mxCell id="426" style="edgeStyle=orthogonalEdgeStyle;sketch=1;hachureGap=4;jiggle=2;curveFitting=1;html=1;exitX=1;exitY=1;exitDx=0;exitDy=0;entryX=1;entryY=0.5;entryDx=0;entryDy=0;strokeColor=#0D0D0D;fontFamily=Architects Daughter;fontSource=https%3A%2F%2Ffonts.googleapis.com%2Fcss%3Ffamily%3DArchitects%2BDaughter;fontSize=16;" edge="1" parent="1" source="419" target="425">
                    <mxGeometry relative="1" as="geometry"/>
                </mxCell>
                <mxCell id="428" style="edgeStyle=orthogonalEdgeStyle;sketch=1;hachureGap=4;jiggle=2;curveFitting=1;html=1;exitX=1;exitY=1;exitDx=0;exitDy=0;entryX=1;entryY=0.5;entryDx=0;entryDy=0;strokeColor=#0D0D0D;fontFamily=Architects Daughter;fontSource=https%3A%2F%2Ffonts.googleapis.com%2Fcss%3Ffamily%3DArchitects%2BDaughter;fontSize=16;" edge="1" parent="1" source="419" target="421">
                    <mxGeometry relative="1" as="geometry"/>
                </mxCell>
                <mxCell id="429" style="edgeStyle=orthogonalEdgeStyle;sketch=1;hachureGap=4;jiggle=2;curveFitting=1;html=1;exitX=1;exitY=1;exitDx=0;exitDy=0;entryX=1;entryY=0.5;entryDx=0;entryDy=0;strokeColor=#0D0D0D;fontFamily=Architects Daughter;fontSource=https%3A%2F%2Ffonts.googleapis.com%2Fcss%3Ffamily%3DArchitects%2BDaughter;fontSize=16;" edge="1" parent="1" source="419" target="427">
                    <mxGeometry relative="1" as="geometry"/>
                </mxCell>
                <mxCell id="431" style="edgeStyle=orthogonalEdgeStyle;sketch=1;hachureGap=4;jiggle=2;curveFitting=1;html=1;exitX=1;exitY=1;exitDx=0;exitDy=0;entryX=1;entryY=0.5;entryDx=0;entryDy=0;strokeColor=#0D0D0D;fontFamily=Architects Daughter;fontSource=https%3A%2F%2Ffonts.googleapis.com%2Fcss%3Ffamily%3DArchitects%2BDaughter;fontSize=16;" edge="1" parent="1" source="419" target="430">
                    <mxGeometry relative="1" as="geometry"/>
                </mxCell>
                <mxCell id="433" style="edgeStyle=orthogonalEdgeStyle;sketch=1;hachureGap=4;jiggle=2;curveFitting=1;html=1;exitX=1;exitY=1;exitDx=0;exitDy=0;entryX=1;entryY=0.5;entryDx=0;entryDy=0;strokeColor=#0D0D0D;fontFamily=Architects Daughter;fontSource=https%3A%2F%2Ffonts.googleapis.com%2Fcss%3Ffamily%3DArchitects%2BDaughter;fontSize=16;" edge="1" parent="1" source="419" target="432">
                    <mxGeometry relative="1" as="geometry"/>
                </mxCell>
                <mxCell id="435" style="edgeStyle=orthogonalEdgeStyle;sketch=1;hachureGap=4;jiggle=2;curveFitting=1;html=1;exitX=1;exitY=1;exitDx=0;exitDy=0;entryX=1;entryY=0.5;entryDx=0;entryDy=0;strokeColor=#0D0D0D;fontFamily=Architects Daughter;fontSource=https%3A%2F%2Ffonts.googleapis.com%2Fcss%3Ffamily%3DArchitects%2BDaughter;fontSize=16;" edge="1" parent="1" source="419" target="434">
                    <mxGeometry relative="1" as="geometry"/>
                </mxCell>
                <mxCell id="459" style="edgeStyle=orthogonalEdgeStyle;sketch=1;hachureGap=4;jiggle=2;curveFitting=1;html=1;exitX=1;exitY=1;exitDx=0;exitDy=0;entryX=1;entryY=0.5;entryDx=0;entryDy=0;strokeColor=#0D0D0D;fontFamily=Architects Daughter;fontSource=https%3A%2F%2Ffonts.googleapis.com%2Fcss%3Ffamily%3DArchitects%2BDaughter;fontSize=16;" edge="1" parent="1" source="419" target="458">
                    <mxGeometry relative="1" as="geometry"/>
                </mxCell>
                <mxCell id="487" style="edgeStyle=orthogonalEdgeStyle;sketch=1;hachureGap=4;jiggle=2;curveFitting=1;html=1;exitX=1;exitY=1;exitDx=0;exitDy=0;entryX=1;entryY=0.5;entryDx=0;entryDy=0;strokeColor=#0D0D0D;fontFamily=Architects Daughter;fontSource=https%3A%2F%2Ffonts.googleapis.com%2Fcss%3Ffamily%3DArchitects%2BDaughter;fontSize=16;" edge="1" parent="1" source="419" target="486">
                    <mxGeometry relative="1" as="geometry"/>
                </mxCell>
                <mxCell id="489" style="edgeStyle=orthogonalEdgeStyle;sketch=1;hachureGap=4;jiggle=2;curveFitting=1;html=1;exitX=1;exitY=1;exitDx=0;exitDy=0;entryX=1;entryY=0.5;entryDx=0;entryDy=0;strokeColor=#0D0D0D;fontFamily=Architects Daughter;fontSource=https%3A%2F%2Ffonts.googleapis.com%2Fcss%3Ffamily%3DArchitects%2BDaughter;fontSize=16;" edge="1" parent="1" source="419" target="488">
                    <mxGeometry relative="1" as="geometry"/>
                </mxCell>
                <mxCell id="419" value="&lt;b&gt;Content&lt;/b&gt;" style="whiteSpace=wrap;html=1;rounded=1;sketch=1;curveFitting=1;jiggle=2;strokeColor=#36393d;labelBackgroundColor=none;fillColor=#b0b0b0;fontColor=#000000;fontStyle=0;fontSize=14;fillStyle=hachure;" vertex="1" parent="1">
                    <mxGeometry x="5240" y="40" width="140" height="30" as="geometry"/>
                </mxCell>
                <mxCell id="421" value="Photo" style="whiteSpace=wrap;html=1;rounded=1;sketch=1;curveFitting=1;jiggle=2;strokeColor=#36393d;labelBackgroundColor=none;fillColor=#eeeeee;fontColor=#000000;fontStyle=0;fontSize=14;" vertex="1" parent="1">
                    <mxGeometry x="5240" y="170" width="110" height="30" as="geometry"/>
                </mxCell>
                <mxCell id="423" value="ContentTypeId" style="whiteSpace=wrap;html=1;rounded=1;sketch=1;curveFitting=1;jiggle=2;strokeColor=#36393d;labelBackgroundColor=none;fillColor=#eeeeee;fontColor=#000000;fontStyle=0;fontSize=14;" vertex="1" parent="1">
                    <mxGeometry x="5240" y="90" width="110" height="30" as="geometry"/>
                </mxCell>
                <mxCell id="425" value="ContentTypeCategoryId" style="whiteSpace=wrap;html=1;rounded=1;sketch=1;curveFitting=1;jiggle=2;strokeColor=#36393d;labelBackgroundColor=none;fillColor=#eeeeee;fontColor=#000000;fontStyle=0;fontSize=14;" vertex="1" parent="1">
                    <mxGeometry x="5170" y="130" width="180" height="30" as="geometry"/>
                </mxCell>
                <mxCell id="427" value="Video" style="whiteSpace=wrap;html=1;rounded=1;sketch=1;curveFitting=1;jiggle=2;strokeColor=#36393d;labelBackgroundColor=none;fillColor=#eeeeee;fontColor=#000000;fontStyle=0;fontSize=14;" vertex="1" parent="1">
                    <mxGeometry x="5240" y="210" width="110" height="30" as="geometry"/>
                </mxCell>
                <mxCell id="430" value="Title" style="whiteSpace=wrap;html=1;rounded=1;sketch=1;curveFitting=1;jiggle=2;strokeColor=#36393d;labelBackgroundColor=none;fillColor=#eeeeee;fontColor=#000000;fontStyle=0;fontSize=14;" vertex="1" parent="1">
                    <mxGeometry x="5240" y="250" width="110" height="30" as="geometry"/>
                </mxCell>
                <mxCell id="432" value="Text" style="whiteSpace=wrap;html=1;rounded=1;sketch=1;curveFitting=1;jiggle=2;strokeColor=#36393d;labelBackgroundColor=none;fillColor=#eeeeee;fontColor=#000000;fontStyle=0;fontSize=14;" vertex="1" parent="1">
                    <mxGeometry x="5240" y="290" width="110" height="30" as="geometry"/>
                </mxCell>
                <mxCell id="434" value="IsRichText" style="whiteSpace=wrap;html=1;rounded=1;sketch=1;curveFitting=1;jiggle=2;strokeColor=#36393d;labelBackgroundColor=none;fillColor=#eeeeee;fontColor=#000000;fontStyle=0;fontSize=14;" vertex="1" parent="1">
                    <mxGeometry x="5240" y="330" width="110" height="30" as="geometry"/>
                </mxCell>
                <mxCell id="437" value="haveRichText" style="whiteSpace=wrap;html=1;rounded=1;sketch=1;curveFitting=1;jiggle=2;strokeColor=#36393d;labelBackgroundColor=none;fillColor=#eeeeee;fontColor=#000000;fontStyle=0;fontSize=14;" vertex="1" parent="1">
                    <mxGeometry x="5650" y="210" width="110" height="30" as="geometry"/>
                </mxCell>
                <mxCell id="445" value="haveImage" style="whiteSpace=wrap;html=1;rounded=1;sketch=1;curveFitting=1;jiggle=2;strokeColor=#36393d;labelBackgroundColor=none;fillColor=#eeeeee;fontColor=#000000;fontStyle=0;fontSize=14;" vertex="1" parent="1">
                    <mxGeometry x="5650" y="250" width="110" height="30" as="geometry"/>
                </mxCell>
                <mxCell id="446" value="haveVideo" style="whiteSpace=wrap;html=1;rounded=1;sketch=1;curveFitting=1;jiggle=2;strokeColor=#36393d;labelBackgroundColor=none;fillColor=#eeeeee;fontColor=#000000;fontStyle=0;fontSize=14;" vertex="1" parent="1">
                    <mxGeometry x="5650" y="290" width="110" height="30" as="geometry"/>
                </mxCell>
                <mxCell id="451" value="englishTitle" style="whiteSpace=wrap;html=1;rounded=1;sketch=1;curveFitting=1;jiggle=2;strokeColor=#36393d;labelBackgroundColor=none;fillColor=#eeeeee;fontColor=#000000;fontStyle=0;fontSize=14;" vertex="1" parent="1">
                    <mxGeometry x="5650" y="130" width="110" height="30" as="geometry"/>
                </mxCell>
                <mxCell id="456" value="needAdminApprove" style="whiteSpace=wrap;html=1;rounded=1;sketch=1;curveFitting=1;jiggle=2;strokeColor=#36393d;labelBackgroundColor=none;fillColor=#eeeeee;fontColor=#000000;fontStyle=0;fontSize=14;" vertex="1" parent="1">
                    <mxGeometry x="5600" y="330" width="160" height="30" as="geometry"/>
                </mxCell>
                <mxCell id="458" value="adminApproved" style="whiteSpace=wrap;html=1;rounded=1;sketch=1;curveFitting=1;jiggle=2;strokeColor=#36393d;labelBackgroundColor=none;fillColor=#eeeeee;fontColor=#000000;fontStyle=0;fontSize=14;" vertex="1" parent="1">
                    <mxGeometry x="5240" y="370" width="110" height="30" as="geometry"/>
                </mxCell>
                <mxCell id="464" style="edgeStyle=orthogonalEdgeStyle;sketch=1;hachureGap=4;jiggle=2;curveFitting=1;html=1;exitX=1;exitY=1;exitDx=0;exitDy=0;entryX=1;entryY=0.5;entryDx=0;entryDy=0;strokeColor=#0D0D0D;fontFamily=Architects Daughter;fontSource=https%3A%2F%2Ffonts.googleapis.com%2Fcss%3Ffamily%3DArchitects%2BDaughter;fontSize=16;" edge="1" parent="1" source="460" target="461">
                    <mxGeometry relative="1" as="geometry"/>
                </mxCell>
                <mxCell id="465" style="edgeStyle=orthogonalEdgeStyle;sketch=1;hachureGap=4;jiggle=2;curveFitting=1;html=1;exitX=1;exitY=1;exitDx=0;exitDy=0;entryX=1;entryY=0.5;entryDx=0;entryDy=0;strokeColor=#0D0D0D;fontFamily=Architects Daughter;fontSource=https%3A%2F%2Ffonts.googleapis.com%2Fcss%3Ffamily%3DArchitects%2BDaughter;fontSize=16;" edge="1" parent="1" source="460" target="462">
                    <mxGeometry relative="1" as="geometry"/>
                </mxCell>
                <mxCell id="466" style="edgeStyle=orthogonalEdgeStyle;sketch=1;hachureGap=4;jiggle=2;curveFitting=1;html=1;exitX=1;exitY=1;exitDx=0;exitDy=0;entryX=1;entryY=0.5;entryDx=0;entryDy=0;strokeColor=#0D0D0D;fontFamily=Architects Daughter;fontSource=https%3A%2F%2Ffonts.googleapis.com%2Fcss%3Ffamily%3DArchitects%2BDaughter;fontSize=16;" edge="1" parent="1" source="460" target="463">
                    <mxGeometry relative="1" as="geometry"/>
                </mxCell>
                <mxCell id="460" value="&lt;b&gt;PageItemView&lt;/b&gt;" style="whiteSpace=wrap;html=1;rounded=1;sketch=1;curveFitting=1;jiggle=2;strokeColor=#36393d;labelBackgroundColor=none;fillColor=#b0b0b0;fontColor=#000000;fontStyle=0;fontSize=14;fillStyle=hachure;" vertex="1" parent="1">
                    <mxGeometry x="4950" y="590" width="140" height="30" as="geometry"/>
                </mxCell>
                <mxCell id="476" style="edgeStyle=orthogonalEdgeStyle;sketch=1;hachureGap=4;jiggle=2;curveFitting=1;html=1;exitX=0;exitY=0.5;exitDx=0;exitDy=0;entryX=1;entryY=0.5;entryDx=0;entryDy=0;strokeColor=#0D0D0D;fontFamily=Architects Daughter;fontSource=https%3A%2F%2Ffonts.googleapis.com%2Fcss%3Ffamily%3DArchitects%2BDaughter;fontSize=16;" edge="1" parent="1" source="461" target="474">
                    <mxGeometry relative="1" as="geometry"/>
                </mxCell>
                <mxCell id="461" value="title" style="whiteSpace=wrap;html=1;rounded=1;sketch=1;curveFitting=1;jiggle=2;strokeColor=#36393d;labelBackgroundColor=none;fillColor=#eeeeee;fontColor=#000000;fontStyle=0;fontSize=14;" vertex="1" parent="1">
                    <mxGeometry x="4950" y="640" width="110" height="30" as="geometry"/>
                </mxCell>
                <mxCell id="462" value="englishTitle" style="whiteSpace=wrap;html=1;rounded=1;sketch=1;curveFitting=1;jiggle=2;strokeColor=#36393d;labelBackgroundColor=none;fillColor=#eeeeee;fontColor=#000000;fontStyle=0;fontSize=14;" vertex="1" parent="1">
                    <mxGeometry x="4950" y="680" width="110" height="30" as="geometry"/>
                </mxCell>
                <mxCell id="463" value="id" style="whiteSpace=wrap;html=1;rounded=1;sketch=1;curveFitting=1;jiggle=2;strokeColor=#36393d;labelBackgroundColor=none;fillColor=#eeeeee;fontColor=#000000;fontStyle=0;fontSize=14;" vertex="1" parent="1">
                    <mxGeometry x="4950" y="720" width="110" height="30" as="geometry"/>
                </mxCell>
                <mxCell id="467" style="edgeStyle=orthogonalEdgeStyle;sketch=1;hachureGap=4;jiggle=2;curveFitting=1;html=1;exitX=1;exitY=1;exitDx=0;exitDy=0;entryX=1;entryY=0.5;entryDx=0;entryDy=0;strokeColor=#0D0D0D;fontFamily=Architects Daughter;fontSource=https%3A%2F%2Ffonts.googleapis.com%2Fcss%3Ffamily%3DArchitects%2BDaughter;fontSize=16;" edge="1" source="470" target="471" parent="1">
                    <mxGeometry relative="1" as="geometry"/>
                </mxCell>
                <mxCell id="468" style="edgeStyle=orthogonalEdgeStyle;sketch=1;hachureGap=4;jiggle=2;curveFitting=1;html=1;exitX=1;exitY=1;exitDx=0;exitDy=0;entryX=1;entryY=0.5;entryDx=0;entryDy=0;strokeColor=#0D0D0D;fontFamily=Architects Daughter;fontSource=https%3A%2F%2Ffonts.googleapis.com%2Fcss%3Ffamily%3DArchitects%2BDaughter;fontSize=16;" edge="1" source="470" target="472" parent="1">
                    <mxGeometry relative="1" as="geometry"/>
                </mxCell>
                <mxCell id="469" style="edgeStyle=orthogonalEdgeStyle;sketch=1;hachureGap=4;jiggle=2;curveFitting=1;html=1;exitX=1;exitY=1;exitDx=0;exitDy=0;entryX=1;entryY=0.5;entryDx=0;entryDy=0;strokeColor=#0D0D0D;fontFamily=Architects Daughter;fontSource=https%3A%2F%2Ffonts.googleapis.com%2Fcss%3Ffamily%3DArchitects%2BDaughter;fontSize=16;" edge="1" source="470" target="473" parent="1">
                    <mxGeometry relative="1" as="geometry"/>
                </mxCell>
                <mxCell id="470" value="&lt;b&gt;PageItem&lt;br&gt;&lt;/b&gt;" style="whiteSpace=wrap;html=1;rounded=1;sketch=1;curveFitting=1;jiggle=2;strokeColor=#36393d;labelBackgroundColor=none;fillColor=#b0b0b0;fontColor=#000000;fontStyle=0;fontSize=14;fillStyle=hachure;" vertex="1" parent="1">
                    <mxGeometry x="5120" y="590" width="140" height="30" as="geometry"/>
                </mxCell>
                <mxCell id="471" value="contnetType" style="whiteSpace=wrap;html=1;rounded=1;sketch=1;curveFitting=1;jiggle=2;strokeColor=#36393d;labelBackgroundColor=none;fillColor=#eeeeee;fontColor=#000000;fontStyle=0;fontSize=14;" vertex="1" parent="1">
                    <mxGeometry x="5120" y="640" width="110" height="30" as="geometry"/>
                </mxCell>
                <mxCell id="472" value="pageItemView" style="whiteSpace=wrap;html=1;rounded=1;sketch=1;curveFitting=1;jiggle=2;strokeColor=#36393d;labelBackgroundColor=none;fillColor=#eeeeee;fontColor=#000000;fontStyle=0;fontSize=14;" vertex="1" parent="1">
                    <mxGeometry x="5120" y="680" width="110" height="30" as="geometry"/>
                </mxCell>
                <mxCell id="473" value="sortType" style="whiteSpace=wrap;html=1;rounded=1;sketch=1;curveFitting=1;jiggle=2;strokeColor=#36393d;labelBackgroundColor=none;fillColor=#eeeeee;fontColor=#000000;fontStyle=0;fontSize=14;" vertex="1" parent="1">
                    <mxGeometry x="5120" y="720" width="110" height="30" as="geometry"/>
                </mxCell>
                <mxCell id="474" value="portraite&lt;br&gt;wide&lt;br&gt;pictureOnly" style="whiteSpace=wrap;html=1;rounded=1;sketch=1;curveFitting=1;jiggle=2;strokeColor=#36393d;labelBackgroundColor=none;fillColor=#eeeeee;fontColor=#000000;fontStyle=0;fontSize=14;" vertex="1" parent="1">
                    <mxGeometry x="4790" y="600" width="110" height="110" as="geometry"/>
                </mxCell>
                <mxCell id="477" style="edgeStyle=orthogonalEdgeStyle;sketch=1;hachureGap=4;jiggle=2;curveFitting=1;html=1;exitX=1;exitY=1;exitDx=0;exitDy=0;entryX=1;entryY=0.5;entryDx=0;entryDy=0;strokeColor=#0D0D0D;fontFamily=Architects Daughter;fontSource=https%3A%2F%2Ffonts.googleapis.com%2Fcss%3Ffamily%3DArchitects%2BDaughter;fontSize=16;" edge="1" source="480" target="482" parent="1">
                    <mxGeometry relative="1" as="geometry"/>
                </mxCell>
                <mxCell id="478" style="edgeStyle=orthogonalEdgeStyle;sketch=1;hachureGap=4;jiggle=2;curveFitting=1;html=1;exitX=1;exitY=1;exitDx=0;exitDy=0;entryX=1;entryY=0.5;entryDx=0;entryDy=0;strokeColor=#0D0D0D;fontFamily=Architects Daughter;fontSource=https%3A%2F%2Ffonts.googleapis.com%2Fcss%3Ffamily%3DArchitects%2BDaughter;fontSize=16;" edge="1" source="480" target="483" parent="1">
                    <mxGeometry relative="1" as="geometry"/>
                </mxCell>
                <mxCell id="479" style="edgeStyle=orthogonalEdgeStyle;sketch=1;hachureGap=4;jiggle=2;curveFitting=1;html=1;exitX=1;exitY=1;exitDx=0;exitDy=0;entryX=1;entryY=0.5;entryDx=0;entryDy=0;strokeColor=#0D0D0D;fontFamily=Architects Daughter;fontSource=https%3A%2F%2Ffonts.googleapis.com%2Fcss%3Ffamily%3DArchitects%2BDaughter;fontSize=16;" edge="1" source="480" target="484" parent="1">
                    <mxGeometry relative="1" as="geometry"/>
                </mxCell>
                <mxCell id="480" value="&lt;b&gt;SortType&lt;/b&gt;" style="whiteSpace=wrap;html=1;rounded=1;sketch=1;curveFitting=1;jiggle=2;strokeColor=#36393d;labelBackgroundColor=none;fillColor=#b0b0b0;fontColor=#000000;fontStyle=0;fontSize=14;fillStyle=hachure;" vertex="1" parent="1">
                    <mxGeometry x="4605" y="590" width="140" height="30" as="geometry"/>
                </mxCell>
                <mxCell id="481" style="edgeStyle=orthogonalEdgeStyle;sketch=1;hachureGap=4;jiggle=2;curveFitting=1;html=1;exitX=0;exitY=0.5;exitDx=0;exitDy=0;entryX=1;entryY=0.5;entryDx=0;entryDy=0;strokeColor=#0D0D0D;fontFamily=Architects Daughter;fontSource=https%3A%2F%2Ffonts.googleapis.com%2Fcss%3Ffamily%3DArchitects%2BDaughter;fontSize=16;" edge="1" source="482" target="485" parent="1">
                    <mxGeometry relative="1" as="geometry"/>
                </mxCell>
                <mxCell id="482" value="title" style="whiteSpace=wrap;html=1;rounded=1;sketch=1;curveFitting=1;jiggle=2;strokeColor=#36393d;labelBackgroundColor=none;fillColor=#eeeeee;fontColor=#000000;fontStyle=0;fontSize=14;" vertex="1" parent="1">
                    <mxGeometry x="4605" y="640" width="110" height="30" as="geometry"/>
                </mxCell>
                <mxCell id="483" value="englishTitle" style="whiteSpace=wrap;html=1;rounded=1;sketch=1;curveFitting=1;jiggle=2;strokeColor=#36393d;labelBackgroundColor=none;fillColor=#eeeeee;fontColor=#000000;fontStyle=0;fontSize=14;" vertex="1" parent="1">
                    <mxGeometry x="4605" y="680" width="110" height="30" as="geometry"/>
                </mxCell>
                <mxCell id="484" value="id" style="whiteSpace=wrap;html=1;rounded=1;sketch=1;curveFitting=1;jiggle=2;strokeColor=#36393d;labelBackgroundColor=none;fillColor=#eeeeee;fontColor=#000000;fontStyle=0;fontSize=14;" vertex="1" parent="1">
                    <mxGeometry x="4605" y="720" width="110" height="30" as="geometry"/>
                </mxCell>
                <mxCell id="485" value="جدیدترین&lt;br&gt;برجسته&lt;br&gt;پربازدید&lt;br&gt;" style="whiteSpace=wrap;html=1;rounded=1;sketch=1;curveFitting=1;jiggle=2;strokeColor=#36393d;labelBackgroundColor=none;fillColor=#eeeeee;fontColor=#000000;fontStyle=0;fontSize=14;" vertex="1" parent="1">
                    <mxGeometry x="4445" y="600" width="110" height="110" as="geometry"/>
                </mxCell>
                <mxCell id="486" value="featured" style="whiteSpace=wrap;html=1;rounded=1;sketch=1;curveFitting=1;jiggle=2;strokeColor=#36393d;labelBackgroundColor=none;fillColor=#eeeeee;fontColor=#000000;fontStyle=0;fontSize=14;" vertex="1" parent="1">
                    <mxGeometry x="5240" y="410" width="110" height="30" as="geometry"/>
                </mxCell>
                <mxCell id="488" value="occurrenceDate" style="whiteSpace=wrap;html=1;rounded=1;sketch=1;curveFitting=1;jiggle=2;strokeColor=#36393d;labelBackgroundColor=none;fillColor=#eeeeee;fontColor=#000000;fontStyle=0;fontSize=14;" vertex="1" parent="1">
                    <mxGeometry x="5240" y="455" width="110" height="30" as="geometry"/>
                </mxCell>
            </root>
        </mxGraphModel>
    </diagram>
</mxfile>